<svg id="Capa_1" enable-background="new 0 0 512 512" height="512" viewBox="0 0 512 512" width="512" xmlns="http://www.w3.org/2000/svg"><g id="XMLID_2471_"><path id="XMLID_2482_" d="m319.287 291.892c-4.386-4.021-10.734-5.072-16.178-2.678-5.446 2.395-8.963 7.782-8.963 13.731v8.825h-151.75c-8.284 0-15 6.716-15 15v57.488c0 8.284 6.716 15 15 15h151.75v14.613c0 5.949 3.517 11.337 8.963 13.731 5.867 2.137 12.759.47 16.178-2.678l60.458-55.463c3.097-2.842 4.859-6.852 4.859-11.054s-1.763-8.212-4.859-11.054zm4.318 88.36c-1.753-6.339-7.563-10.993-14.459-10.993h-151.75v-27.488h151.75c5.297 0 9.952-2.745 12.621-6.891l25.648 23.529z"/><path id="XMLID_2481_" d="m151.737 253.732v-56.154l24.624 61.713c2.307 5.783 7.886 9.443 13.924 9.443.938-.001 1.889-.089 2.838-.271 7.063-1.357 12.17-7.537 12.17-14.73v-134.226c0-8.284-6.716-15-15-15s-15 6.716-15 15v56.154l-24.624-61.713c-2.665-6.682-9.703-10.527-16.762-9.172-7.063 1.357-12.17 7.537-12.17 14.73v134.225c0 8.284 6.716 15 15 15s15-6.715 15-14.999z"/><path id="XMLID_2480_" d="m222.272 134.507h14.26v119.225c0 8.284 6.716 15 15 15s15-6.716 15-15v-119.225h14.26c8.284 0 15-6.716 15-15s-6.716-15-15-15h-58.52c-8.284 0-15 6.716-15 15s6.716 15 15 15z"/><path id="XMLID_2479_" d="m98.799 134.507c8.284 0 15-6.716 15-15s-6.716-15-15-15h-38.659c-8.284 0-15 6.716-15 15v134.225c0 8.284 6.716 15 15 15h38.66c8.284 0 15-6.716 15-15s-6.716-15-15-15h-23.66v-37.112h10.07c8.284 0 15-6.716 15-15s-6.716-15-15-15h-10.07v-37.112h23.659z"/><path id="XMLID_2478_" d="m313.356 268.732h38.659c8.284 0 15-6.716 15-15s-6.716-15-15-15h-23.659v-37.112h10.07c8.284 0 15-6.716 15-15s-6.716-15-15-15h-10.07v-37.112h23.659c8.284 0 15-6.716 15-15s-6.716-15-15-15h-38.659c-8.284 0-15 6.716-15 15v134.225c0 8.283 6.716 14.999 15 14.999z"/><path id="XMLID_2475_" d="m451.861 104.507h-58.521c-8.284 0-15 6.716-15 15v67.112 67.112c0 8.284 6.716 15 15 15s15-6.716 15-15v-52.112h2.807l18.878 56.84c2.09 6.294 7.946 10.276 14.233 10.276 1.566 0 3.161-.247 4.729-.769 7.862-2.611 12.119-11.102 9.508-18.963l-15.738-47.385h9.103c8.284 0 15-6.716 15-15v-67.112c.001-8.283-6.715-14.999-14.999-14.999zm-15 67.112h-28.521v-37.112h28.521z"/><path id="XMLID_2472_" d="m460.792 45.551h-409.584c-28.236 0-51.208 22.972-51.208 51.208v318.483c0 28.235 22.972 51.207 51.208 51.207h409.584c28.236 0 51.208-22.972 51.208-51.207v-318.483c0-28.236-22.971-51.208-51.208-51.208zm21.208 369.691c0 11.693-9.514 21.207-21.208 21.207h-409.584c-11.694 0-21.208-9.514-21.208-21.207v-318.483c0-11.694 9.514-21.208 21.208-21.208h409.584c11.694 0 21.208 9.514 21.208 21.208z"/></g></svg>